<svg width="789" height="464" viewBox="0 0 789 464" fill="none" xmlns="http://www.w3.org/2000/svg">
<path d="M0 0L354 0V99.6999L143.812 99.6999V180.726L323.341 180.726V274.412L143.812 274.412L143.812 464H0L0 0Z" fill="url(#paint0_linear_1448_1374)"/>
<path d="M503.371 175.135L503.371 154.985L503.37 154.985L503.37 128.313L439.127 128.313C433.104 128.313 429.089 129.339 427.081 131.391C425.074 133.442 424.07 137.546 424.07 143.701C424.07 145.753 424.153 147.719 424.321 149.6C424.488 151.48 424.739 153.276 425.074 154.985L397.469 154.985C396.967 151.908 396.633 148.488 396.465 144.727C396.298 140.965 396.214 137.289 396.214 133.699C396.214 128.057 396.633 122.671 397.469 117.541C398.138 112.583 399.56 108.138 401.735 104.205C403.91 100.444 407.005 97.4517 411.02 95.229C415.036 93.0063 420.306 91.895 426.83 91.895L503.37 91.895L503.37 58.2176L391.196 58.2176C384.504 58.2176 378.733 57.4482 373.881 55.9094C369.029 54.5416 365.014 52.0624 361.835 48.4719C358.489 45.0524 356.063 40.3505 354.558 34.3663C352.885 28.3821 352.048 20.7737 352.048 11.5409C352.048 7.2665 352.383 3.41952 353.052 -9.77371e-06L382.413 -8.4903e-06C381.744 1.88074 381.409 4.44539 381.409 7.69394C381.409 11.4554 382.162 14.704 383.668 17.4396C385.006 20.3462 388.101 21.7995 392.953 21.7995L527.211 21.7995L527.211 58.2176L527.21 58.2176L527.21 91.895L566.107 91.895L566.107 128.313L527.21 128.313L527.21 153.336L527.211 153.336L527.211 175.135L537.249 175.135C548.793 175.135 558.245 178.811 565.607 186.163C572.968 193.515 576.648 204.629 576.648 219.504C576.648 222.752 576.481 226.001 576.147 229.249C575.979 232.498 575.812 235.661 575.645 238.739L549.044 238.739C549.546 234.464 549.797 230.019 549.797 225.402C549.797 220.444 548.626 216.854 546.284 214.631C544.109 212.579 540.344 211.553 534.991 211.553L527.211 211.553L527.211 236.687L503.371 236.687L503.371 211.553L397.471 211.553L397.471 175.135L503.371 175.135Z" fill="url(#paint1_linear_1448_1374)"/>
<path d="M689.304 135.917L675.578 135.917L675.578 135.918L657.408 135.918L657.408 179.681C657.408 183.784 658.107 186.519 659.505 187.887C660.902 189.254 663.698 189.938 667.891 189.938C669.288 189.938 670.628 189.881 671.909 189.767C673.19 189.653 674.413 189.482 675.578 189.254L675.578 208.059C673.481 208.401 671.152 208.629 668.589 208.743C666.027 208.857 663.523 208.914 661.077 208.914C657.233 208.914 653.565 208.629 650.071 208.059C646.693 207.603 643.665 206.634 640.986 205.153C638.423 203.671 636.385 201.563 634.871 198.828C633.357 196.092 632.6 192.502 632.6 188.058L632.6 135.918L609.658 135.918L609.658 212.332C609.658 216.891 609.134 220.822 608.086 224.127C607.154 227.432 605.465 230.168 603.02 232.333C600.69 234.612 597.487 236.265 593.411 237.291C589.334 238.43 584.151 239 577.862 239C574.95 239 572.329 238.772 570 238.316L570 218.315C571.281 218.771 573.028 218.999 575.241 218.999C577.804 218.999 580.017 218.486 581.88 217.46C583.86 216.549 584.85 214.44 584.85 211.135L584.85 119.677L609.658 119.677L609.658 119.678L632.6 119.678L632.6 93.181L657.408 93.181L657.408 119.678L674.454 119.678L674.454 119.677L689.304 119.677L689.304 112.839C689.304 104.975 691.808 98.5363 696.816 93.5218C701.825 88.5072 709.395 86 719.528 86C721.741 86 723.954 86.114 726.167 86.3419C728.38 86.4559 730.535 86.5698 732.631 86.6838L732.631 104.804C729.719 104.462 726.691 104.292 723.547 104.292C720.169 104.292 717.723 105.089 716.209 106.685C714.811 108.166 714.112 110.731 714.112 114.378L714.112 119.677L731.234 119.677L731.234 135.917L714.112 135.917L714.112 208.058L689.304 208.058L689.304 135.917Z" fill="#BEA25A"/>
<path d="M768.753 233.078H762.338V233.079H753.847V253.53C753.847 255.447 754.174 256.725 754.827 257.364C755.48 258.003 756.786 258.323 758.746 258.323C759.399 258.323 760.025 258.296 760.624 258.243C761.222 258.19 761.794 258.11 762.338 258.003V266.791C761.358 266.951 760.27 267.057 759.072 267.11C757.875 267.164 756.705 267.19 755.562 267.19C753.765 267.19 752.051 267.057 750.418 266.791C748.84 266.578 747.425 266.125 746.173 265.433C744.975 264.74 744.023 263.755 743.315 262.477C742.608 261.199 742.254 259.521 742.254 257.444V233.079H731.533V268.788C731.533 270.918 731.288 272.755 730.798 274.3C730.363 275.844 729.574 277.123 728.431 278.135C727.342 279.2 725.845 279.972 723.94 280.451C722.035 280.984 719.613 281.25 716.674 281.25C715.313 281.25 714.089 281.144 713 280.931V271.584C713.599 271.797 714.415 271.903 715.449 271.903C716.647 271.903 717.681 271.664 718.552 271.184C719.477 270.758 719.94 269.773 719.94 268.229V225.489H731.533V225.489H742.254V213.107H753.847V225.489H761.813V225.489H768.753V222.293C768.753 218.618 769.923 215.609 772.263 213.266C774.604 210.923 778.141 209.751 782.877 209.751C783.911 209.751 784.945 209.804 785.979 209.911C787.013 209.964 788.02 210.017 789 210.071V218.539C787.639 218.379 786.224 218.299 784.755 218.299C783.176 218.299 782.033 218.672 781.326 219.417C780.672 220.11 780.346 221.308 780.346 223.012V225.489H788.347V233.078H780.346V266.79H768.753V233.078Z" fill="#BEA25A"/>
<path d="M768.753 210.172L762.338 210.172L762.338 210.171L753.847 210.171L753.847 189.72C753.847 187.803 754.174 186.525 754.827 185.886C755.48 185.247 756.786 184.927 758.746 184.927C759.399 184.927 760.025 184.954 760.623 185.007C761.222 185.06 761.794 185.14 762.338 185.247L762.338 176.459C761.358 176.299 760.27 176.193 759.072 176.14C757.875 176.086 756.705 176.06 755.562 176.06C753.765 176.06 752.051 176.193 750.418 176.459C748.84 176.672 747.425 177.125 746.173 177.817C744.975 178.51 744.023 179.495 743.315 180.773C742.608 182.051 742.254 183.729 742.254 185.806L742.254 210.171L731.533 210.171L731.533 174.462C731.533 172.332 731.288 170.495 730.798 168.95C730.363 167.406 729.574 166.127 728.431 165.115C727.342 164.05 725.845 163.278 723.94 162.799C722.035 162.266 719.613 162 716.674 162C715.313 162 714.089 162.106 713 162.319L713 171.666C713.599 171.453 714.415 171.347 715.449 171.347C716.647 171.347 717.681 171.586 718.552 172.066C719.477 172.492 719.94 173.477 719.94 175.021L719.94 217.761L731.533 217.761L731.533 217.761L742.254 217.761L742.254 230.143L753.847 230.143L753.847 217.761L761.813 217.761L761.813 217.761L768.753 217.761L768.753 220.957C768.753 224.632 769.923 227.641 772.263 229.984C774.604 232.327 778.141 233.499 782.877 233.499C783.911 233.499 784.945 233.446 785.979 233.339C787.013 233.286 788.02 233.233 789 233.179L789 224.711C787.639 224.871 786.224 224.951 784.755 224.951C783.176 224.951 782.033 224.578 781.326 223.833C780.672 223.14 780.346 221.942 780.346 220.238L780.346 217.761L788.347 217.761L788.347 210.172L780.346 210.172L780.346 176.46L768.753 176.46L768.753 210.172Z" fill="#BEA25A"/>
<defs>
<linearGradient id="paint0_linear_1448_1374" x1="177" y1="0" x2="177" y2="464" gradientUnits="userSpaceOnUse">
<stop stop-color="#181D28"/>
<stop offset="1" stop-color="#2F3B56"/>
</linearGradient>
<linearGradient id="paint1_linear_1448_1374" x1="464.348" y1="-4.90879e-06" x2="464.348" y2="238.739" gradientUnits="userSpaceOnUse">
<stop offset="0.21906" stop-color="#181D28"/>
<stop offset="0.8" stop-color="#BEA25A"/>
</linearGradient>
</defs>
</svg>
