<svg width="24" height="24" viewBox="0 0 24 24" fill="none" xmlns="http://www.w3.org/2000/svg">
<path d="M12.0002 5.75806C8.61309 5.75806 5.80664 8.51612 5.80664 11.9516C5.80664 15.3871 8.56471 18.1452 12.0002 18.1452C15.4357 18.1452 18.1937 15.3387 18.1937 11.9516C18.1937 8.56451 15.3873 5.75806 12.0002 5.75806ZM12.0002 15.9193C9.82277 15.9193 8.03245 14.129 8.03245 11.9516C8.03245 9.77419 9.82277 7.98386 12.0002 7.98386C14.1776 7.98386 15.9679 9.77419 15.9679 11.9516C15.9679 14.129 14.1776 15.9193 12.0002 15.9193Z" fill="#4D5D80"/>
<path d="M18.4355 7.01605C19.2104 7.01605 19.8387 6.3878 19.8387 5.61282C19.8387 4.83784 19.2104 4.20959 18.4355 4.20959C17.6605 4.20959 17.0322 4.83784 17.0322 5.61282C17.0322 6.3878 17.6605 7.01605 18.4355 7.01605Z" fill="#4D5D80"/>
<path d="M22.0645 1.98387C20.8065 0.677419 19.0161 0 16.9839 0H7.01613C2.80645 0 0 2.80645 0 7.01613V16.9355C0 19.0161 0.677419 20.8065 2.03226 22.1129C3.33871 23.371 5.08065 24 7.06452 24H16.9355C19.0161 24 20.7581 23.3226 22.0161 22.1129C23.3226 20.8548 24 19.0645 24 16.9839V7.01613C24 4.98387 23.3226 3.24194 22.0645 1.98387ZM21.871 16.9839C21.871 18.4839 21.3387 19.6935 20.4677 20.5161C19.5968 21.3387 18.3871 21.7742 16.9355 21.7742H7.06452C5.6129 21.7742 4.40323 21.3387 3.53226 20.5161C2.66129 19.6452 2.22581 18.4355 2.22581 16.9355V7.01613C2.22581 5.56452 2.66129 4.35484 3.53226 3.48387C4.35484 2.66129 5.6129 2.22581 7.06452 2.22581H17.0323C18.4839 2.22581 19.6935 2.66129 20.5645 3.53226C21.3871 4.40323 21.871 5.6129 21.871 7.01613V16.9839Z" fill="#4D5D80"/>
</svg>
