<svg width="24" height="24" viewBox="0 0 24 24" fill="none" xmlns="http://www.w3.org/2000/svg">
<path fill-rule="evenodd" clip-rule="evenodd" d="M24 12C24 18.6274 18.6274 24 12 24C5.37258 24 0 18.6274 0 12C0 5.37258 5.37258 0 12 0C18.6274 0 24 5.37258 24 12ZM9.89472 6.69984C9.46752 6.60864 8.9952 6.56256 8.47776 6.56256H3.36V17.4384H8.63136C9.11136 17.4394 9.5904 17.3779 10.055 17.256C10.5168 17.1341 10.9277 16.9469 11.2886 16.6925C11.6496 16.439 11.9366 16.1117 12.1498 15.7104C12.3629 15.3091 12.4694 14.8339 12.4694 14.2858C12.4694 13.6051 12.3043 13.0234 11.9741 12.5414C11.6438 12.0595 11.1437 11.7216 10.4736 11.5286C10.9603 11.2954 11.329 10.9958 11.5776 10.6301C11.8262 10.2643 11.951 9.80736 11.951 9.2592C11.951 8.75136 11.8675 8.32512 11.6995 7.97952C11.5315 7.63392 11.2954 7.35744 10.991 7.14912C10.6867 6.9408 10.3219 6.79104 9.89472 6.69984ZM9.22464 10.6598C8.95008 10.8624 8.59968 10.9642 8.17344 10.9642L5.75232 10.9661V8.42208H7.99008C8.19744 8.42112 8.40384 8.43936 8.60736 8.47488C8.80512 8.5104 8.97984 8.57376 9.13248 8.66496C9.28512 8.75616 9.40704 8.88384 9.49824 9.04608C9.58944 9.20832 9.63552 9.41664 9.63552 9.67008C9.63648 10.127 9.4992 10.4563 9.22464 10.6598ZM8.9808 15.5107C8.76096 15.5568 8.53632 15.5798 8.31072 15.5789L5.75232 15.5798V12.5942H8.3568C8.87424 12.5942 9.29088 12.7133 9.60576 12.9523C9.92064 13.1904 10.0781 13.5898 10.0781 14.1475C10.0781 14.4317 10.0291 14.6659 9.93312 14.8483C9.83616 15.0307 9.70656 15.1757 9.54432 15.2822C9.38208 15.3888 9.19392 15.4646 8.9808 15.5107ZM16.8797 15.8227C16.2701 15.8227 15.8026 15.6653 15.4781 15.3504C15.1536 15.0365 14.976 14.5286 14.9462 13.8307H20.6275C20.6678 13.2211 20.617 12.6374 20.4749 12.0787C20.3328 11.52 20.1014 11.0227 19.7818 10.5859C19.4621 10.1491 19.0531 9.8016 18.5558 9.5424C18.0576 9.2832 17.4739 9.1536 16.8038 9.1536C16.2048 9.1536 15.6586 9.26016 15.1661 9.47328C14.6736 9.6864 14.2493 9.97824 13.8941 10.3488C13.5389 10.7194 13.2643 11.1581 13.0714 11.6659C12.8784 12.1738 12.7824 12.7219 12.7824 13.3104C12.7824 13.919 12.8765 14.4778 13.0637 14.9856C13.2509 15.4934 13.5178 15.9293 13.8634 16.295C14.209 16.6608 14.6304 16.943 15.1277 17.1408C15.625 17.3386 16.1837 17.4374 16.8029 17.4374C17.6966 17.4374 18.4579 17.2339 19.0877 16.8278C19.7174 16.4218 20.185 15.7469 20.4893 14.8022H18.5856C18.5146 15.0461 18.3216 15.2774 18.0067 15.4954C17.6918 15.7133 17.3165 15.8227 16.8797 15.8227ZM16.7424 10.7818C17.2704 10.7818 17.664 10.9238 17.9232 11.208C18.1814 11.4922 18.3619 11.9088 18.4646 12.456H14.9462C14.9558 12.3043 14.9894 12.1315 15.0451 11.9386C15.1008 11.7456 15.1968 11.5632 15.3341 11.3904C15.4714 11.2176 15.6538 11.0736 15.8822 10.9565C16.1098 10.8403 16.3968 10.7818 16.7424 10.7818ZM18.9715 7.11456H14.5757V8.33376H18.9715V7.11456Z" fill="#4D5D80"/>
</svg>
