<svg width="24" height="24" viewBox="0 0 24 24" fill="none" xmlns="http://www.w3.org/2000/svg">
<path d="M21.9619 0.120117C22.2851 0.120131 22.6085 0.136879 22.9316 0.170898C23.2549 0.187911 23.5697 0.204667 23.876 0.22168V2.92773C23.4507 2.8767 23.0082 2.85157 22.5488 2.85156C22.0555 2.85156 21.6978 2.96993 21.4766 3.20801C21.2724 3.42922 21.1699 3.81291 21.1699 4.35742V5.14844H23.6719V7.57324H21.1699V18.3447H17.5459V7.57324H12.8877V14.1074C12.8877 14.7199 12.9902 15.1278 13.1943 15.332C13.3985 15.5362 13.8064 15.6387 14.4189 15.6387C14.623 15.6387 14.8188 15.6303 15.0059 15.6133C15.193 15.5963 15.3719 15.5711 15.542 15.5371V18.3447C15.2358 18.3957 14.8956 18.4293 14.5215 18.4463C14.1472 18.4633 13.7811 18.4717 13.4238 18.4717C12.8623 18.4717 12.3259 18.4298 11.8154 18.3447C11.322 18.2767 10.8796 18.1313 10.4883 17.9102C10.114 17.689 9.8159 17.3741 9.59473 16.9658C9.37366 16.5576 9.26372 16.0217 9.26367 15.3584V7.57324H5.91113V18.9824C5.91112 19.6628 5.8347 20.2498 5.68164 20.7432C5.54552 21.2366 5.29869 21.6455 4.94141 21.9688C4.60108 22.3091 4.13267 22.5558 3.53711 22.709C2.94158 22.8791 2.18438 22.9639 1.26562 22.9639C0.840308 22.9639 0.457457 22.9303 0.117188 22.8623V19.876C0.304346 19.944 0.559626 19.9775 0.882812 19.9775C1.2571 19.9775 1.58031 19.9011 1.85254 19.748C2.1418 19.6119 2.2871 19.2971 2.28711 18.8037V5.14844H9.26367V1.19238H12.8877V5.14844H17.5459V4.12695C17.546 2.953 17.9119 1.9918 18.6436 1.24316C19.3752 0.494479 20.4815 0.120117 21.9619 0.120117Z" fill="white"/>
</svg>
