<svg width="25" height="24" viewBox="0 0 25 24" fill="none" xmlns="http://www.w3.org/2000/svg">
<path fill-rule="evenodd" clip-rule="evenodd" d="M21.6763 1C21.756 1 21.835 1.03539 21.8961 1.10303C21.9943 1.21144 22.0265 1.38157 21.9771 1.53037L15.7308 20.4394C15.6725 20.6157 15.5557 20.7554 15.4088 20.8251C15.3414 20.8569 15.2707 20.8725 15.1993 20.8725C15.1155 20.8725 15.0309 20.8503 14.9534 20.8057L8.64459 17.1985L17.5159 6.49379L7.38984 16.4811L2.32554 13.5854C2.12773 13.4722 2.00134 13.2331 2.00001 12.9702C1.99868 12.7069 2.12296 12.4663 2.31936 12.3504L21.5349 1.03956C21.5802 1.0128 21.6282 1 21.6763 1ZM8.82715 22.0151C8.72133 21.9479 8.65479 21.816 8.65479 21.6722H8.65483V18.6064L11.3861 20.1686L9.16028 21.9924C9.06145 22.0736 8.93289 22.0823 8.82715 22.0151Z" fill="#181D28"/>
</svg>
